<svg width="23" height="18" viewBox="0 0 23 18" fill="none" xmlns="http://www.w3.org/2000/svg">
<path d="M4.4 1.64C4.93333 0.946664 5.46667 0.57333 6 0.519998C6.58667 0.413332 7.06667 0.519999 7.44 0.839998C7.86667 1.10666 8.10667 1.53333 8.16 2.12C8.21333 2.70666 7.97333 3.34666 7.44 4.04C6.58667 5.16 5.97333 6.30666 5.6 7.48C5.28 8.6 5.12 9.64 5.12 10.6L4.88 9C6.26667 9 7.38667 9.4 8.24 10.2C9.09333 10.9467 9.52 11.9867 9.52 13.32C9.52 14.6 9.12 15.6667 8.32 16.52C7.52 17.32 6.48 17.72 5.2 17.72C3.81333 17.72 2.72 17.2667 1.92 16.36C1.17333 15.4 0.8 14.04 0.8 12.28C0.8 11.16 0.88 10.0133 1.04 8.84C1.25333 7.61333 1.62667 6.38667 2.16 5.16C2.74667 3.93333 3.49333 2.76 4.4 1.64ZM17.68 1.64C18.2133 0.946664 18.7467 0.57333 19.28 0.519998C19.8667 0.413332 20.3467 0.519999 20.72 0.839998C21.1467 1.10666 21.3867 1.53333 21.44 2.12C21.4933 2.70666 21.2533 3.34666 20.72 4.04C19.8667 5.16 19.2533 6.30666 18.88 7.48C18.56 8.6 18.4 9.64 18.4 10.6L18.16 9C19.5467 9 20.6667 9.4 21.52 10.2C22.3733 10.9467 22.8 11.9867 22.8 13.32C22.8 14.6 22.4 15.6667 21.6 16.52C20.8 17.32 19.76 17.72 18.48 17.72C17.0933 17.72 16 17.2667 15.2 16.36C14.4533 15.4 14.08 14.04 14.08 12.28C14.08 11.16 14.16 10.0133 14.32 8.84C14.5333 7.61333 14.9067 6.38667 15.44 5.16C16.0267 3.93333 16.7733 2.76 17.68 1.64Z" fill="#DDDDDD"/>
</svg>
